<svg width="24" height="26" viewBox="0 0 24 26" fill="none" xmlns="http://www.w3.org/2000/svg">
<g filter="url(#filter0_d_791_1478)">
<path d="M11.9996 7.39651C10.566 7.39651 9.39609 8.56644 9.39609 10C9.39609 11.4336 10.566 12.6035 11.9996 12.6035C13.4332 12.6035 14.6031 11.4336 14.6031 10C14.6031 8.56644 13.4332 7.39651 11.9996 7.39651ZM19.8082 10C19.8082 8.92191 19.818 7.85355 19.7574 6.77737C19.6969 5.52737 19.4117 4.418 18.4977 3.50394C17.5816 2.58792 16.4742 2.30472 15.2242 2.24417C14.1461 2.18363 13.0777 2.19339 12.0016 2.19339C10.9234 2.19339 9.85507 2.18363 8.7789 2.24417C7.5289 2.30472 6.41953 2.58988 5.50546 3.50394C4.58945 4.41995 4.30624 5.52737 4.2457 6.77737C4.18515 7.8555 4.19492 8.92386 4.19492 10C4.19492 11.0762 4.18515 12.1465 4.2457 13.2227C4.30624 14.4727 4.5914 15.5821 5.50546 16.4961C6.42148 17.4121 7.5289 17.6953 8.7789 17.7559C9.85703 17.8164 10.9254 17.8067 12.0016 17.8067C13.0797 17.8067 14.148 17.8164 15.2242 17.7559C16.4742 17.6953 17.5836 17.4102 18.4977 16.4961C19.4137 15.5801 19.6969 14.4727 19.7574 13.2227C19.8199 12.1465 19.8082 11.0782 19.8082 10ZM11.9996 14.0059C9.78281 14.0059 7.99375 12.2168 7.99375 10C7.99375 7.78323 9.78281 5.99417 11.9996 5.99417C14.2164 5.99417 16.0055 7.78323 16.0055 10C16.0055 12.2168 14.2164 14.0059 11.9996 14.0059ZM16.1695 6.76566C15.6519 6.76566 15.234 6.34769 15.234 5.83011C15.234 5.31253 15.6519 4.89456 16.1695 4.89456C16.6871 4.89456 17.1051 5.31253 17.1051 5.83011C17.1052 5.95301 17.0811 6.07473 17.0342 6.18831C16.9872 6.30188 16.9183 6.40508 16.8314 6.49198C16.7445 6.57889 16.6413 6.64779 16.5277 6.69476C16.4142 6.74172 16.2924 6.76581 16.1695 6.76566Z" fill="white"/>
</g>
<defs>
<filter id="filter0_d_791_1478" x="-2" y="0" width="28" height="28" filterUnits="userSpaceOnUse" color-interpolation-filters="sRGB">
<feFlood flood-opacity="0" result="BackgroundImageFix"/>
<feColorMatrix in="SourceAlpha" type="matrix" values="0 0 0 0 0 0 0 0 0 0 0 0 0 0 0 0 0 0 127 0" result="hardAlpha"/>
<feOffset dy="4"/>
<feGaussianBlur stdDeviation="2"/>
<feComposite in2="hardAlpha" operator="out"/>
<feColorMatrix type="matrix" values="0 0 0 0 0 0 0 0 0 0 0 0 0 0 0 0 0 0 0.25 0"/>
<feBlend mode="normal" in2="BackgroundImageFix" result="effect1_dropShadow_791_1478"/>
<feBlend mode="normal" in="SourceGraphic" in2="effect1_dropShadow_791_1478" result="shape"/>
</filter>
</defs>
</svg>
